<svg width="100" height="100" viewBox="0 0 100 100" fill="none" xmlns="http://www.w3.org/2000/svg">
<path d="M29.0264 0C13.0409 0 0 13.0409 0 29.0264V70.9736C0 86.9591 13.0409 100 29.0264 100H70.9736C86.9591 100 100 86.9591 100 70.9736V29.0264C100 13.0409 86.9591 0 70.9736 0H29.0264ZM29.0264 7.69231H70.9736C82.7975 7.69231 92.3077 17.1875 92.3077 29.0264V70.9736C92.3077 82.7975 82.8125 92.3077 70.9736 92.3077H29.0264C17.2025 92.3077 7.69231 82.8125 7.69231 70.9736V29.0264C7.69231 17.2025 17.1875 7.69231 29.0264 7.69231ZM78.8462 15.3846C75.6611 15.3846 73.0769 17.9687 73.0769 21.1538C73.0769 24.3389 75.6611 26.9231 78.8462 26.9231C82.0312 26.9231 84.6154 24.3389 84.6154 21.1538C84.6154 17.9687 82.0312 15.3846 78.8462 15.3846ZM50 23.0769C35.1713 23.0769 23.0769 35.1713 23.0769 50C23.0769 64.8287 35.1713 76.9231 50 76.9231C64.8287 76.9231 76.9231 64.8287 76.9231 50C76.9231 35.1713 64.8287 23.0769 50 23.0769ZM50 30.7692C60.6671 30.7692 69.2308 39.3329 69.2308 50C69.2308 60.6671 60.6671 69.2308 50 69.2308C39.3329 69.2308 30.7692 60.6671 30.7692 50C30.7692 39.3329 39.3329 30.7692 50 30.7692Z" fill="white"/>
</svg>
