<svg width="100" height="100" viewBox="0 0 100 100" fill="none" xmlns="http://www.w3.org/2000/svg">
<path d="M81.25 0H18.75C8.39844 0 0 8.39844 0 18.75V81.25C0 91.6016 8.39844 100 18.75 100H81.25C91.6016 100 100 91.6016 100 81.25V18.75C100 8.39844 91.6016 0 81.25 0ZM30.9195 84.8858H15.3846L15.2945 38.3714H30.8293L30.9195 84.8858ZM22.7614 32.2867H22.6713C17.5931 32.2867 14.3179 28.7861 14.3179 24.4291C14.3179 19.9669 17.6983 16.5865 22.8666 16.5865C28.0349 16.5865 31.2049 19.9669 31.3101 24.4291C31.3101 28.7861 28.0198 32.2867 22.7614 32.2867ZM84.7806 84.8858H69.1106V59.6154C69.1106 53.5006 67.488 49.3389 62.0192 49.3389C57.8425 49.3389 55.5889 52.1484 54.5072 54.8678C54.1016 55.8443 53.9964 57.1815 53.9964 58.5487V84.8858H38.2512L38.1611 38.3714H53.9062L53.9964 44.9369C56.0096 41.8269 59.36 37.4249 67.3828 37.4249C77.3287 37.4249 84.7656 43.9153 84.7656 57.8726V84.8858H84.7806Z" fill="white"/>
</svg>
